<svg width="52" height="52" viewBox="0 0 52 52" fill="none" xmlns="http://www.w3.org/2000/svg">
<path d="M50.9661 19.9617V51H5.19766C5.11133 50.9652 5.02956 50.9182 4.9402 50.8985C2.64118 50.3669 1.00551 48.3814 1.004 46.0778C0.999452 35.9791 0.997938 25.8804 1.004 15.7801C1.00551 13.1585 3.15914 10.9458 5.7747 10.8882C7.56182 10.8504 9.35196 10.864 11.1406 10.8807C11.4814 10.8837 11.6586 10.7656 11.8221 10.4793C13.5244 7.50787 15.2388 4.54245 16.9517 1.57553C17.3077 0.95761 17.6091 0.877343 18.2209 1.22719C19.01 1.67852 19.7945 2.1359 20.5821 2.58874C21.7588 3.26572 22.9356 3.9427 24.126 4.62877C25.174 3.57922 26.1963 2.55541 27.2186 1.53312C27.9259 0.825843 28.1152 0.822821 28.8134 1.52101C31.8151 4.52277 34.8169 7.52149 37.8096 10.5308C38.061 10.7837 38.3109 10.8852 38.6638 10.8792C39.8996 10.8595 41.1354 10.8701 42.3713 10.8716C43.1497 10.8716 43.3466 11.0715 43.3466 11.85C43.3466 14.208 43.3466 16.5661 43.3466 18.9242V19.4997C43.5708 19.4997 43.7449 19.4997 43.9191 19.4997C45.9516 19.4997 47.984 19.5058 50.0165 19.4952C50.4239 19.4937 50.7495 19.5997 50.9646 19.9602L50.9661 19.9617ZM49.5834 42.2053C49.3653 42.2053 49.1896 42.2053 49.0139 42.2053C45.8592 42.2053 42.7045 42.2083 39.5498 42.2007C39.0803 42.2007 38.6077 42.1689 38.1413 42.1159C34.3853 41.6888 31.6591 37.8495 32.48 34.1526C33.2009 30.9085 35.8665 28.7625 39.2014 28.7564C42.4697 28.7504 45.738 28.7564 49.0063 28.7564C49.1941 28.7564 49.3819 28.7564 49.5773 28.7564V20.9007C49.3607 20.9007 49.1714 20.9007 48.9806 20.9007C45.9561 20.9007 42.9316 20.9007 39.9072 20.9007C28.7528 20.9007 17.5969 20.8976 6.44258 20.9037C5.04469 20.9037 3.77706 20.572 2.70175 19.6406C2.6124 19.5634 2.5185 19.4876 2.36554 19.3604C2.36554 19.5906 2.36554 19.733 2.36554 19.8753C2.36554 28.5277 2.36554 37.1801 2.36554 45.8325C2.36554 48.0709 3.93152 49.6354 6.16693 49.6354C20.4593 49.6354 34.7533 49.6354 49.0457 49.6354C49.2184 49.6354 49.3925 49.6354 49.5834 49.6354V42.2037V42.2053ZM49.5803 30.177C49.488 30.1573 49.441 30.1392 49.3941 30.1392C45.9334 30.1392 42.4697 30.074 39.0106 30.1558C35.4469 30.2406 33.0374 33.4499 33.8931 36.8212C34.4973 39.205 36.6298 40.8149 39.2378 40.824C42.553 40.8361 45.8683 40.8271 49.182 40.8255C49.3077 40.8255 49.4334 40.8058 49.5788 40.7937V30.1755L49.5803 30.177ZM8.19336 19.5013C9.03392 19.5013 9.76541 19.4831 10.4939 19.5088C10.8362 19.5209 11.0088 19.3937 11.1739 19.1029C13.0776 15.7801 14.9965 12.4648 16.9139 9.14807C17.2804 8.51349 17.4849 8.44685 18.13 8.73007C19.1432 9.17382 20.1459 8.9012 20.8016 8.0031C21.1818 7.48362 21.4407 7.42003 21.9905 7.73504C23.3839 8.5347 24.7757 9.33738 26.1645 10.1446C26.7173 10.4657 26.7961 10.7262 26.5386 11.3093C26.0782 12.3543 26.3463 13.3311 27.2777 14.0127C27.782 14.3807 27.8441 14.626 27.5336 15.1667C26.8006 16.448 26.057 17.7247 25.3194 19.0045C25.2406 19.1408 25.1755 19.2832 25.0619 19.5013C25.8722 19.5013 26.6128 19.4846 27.3519 19.5088C27.673 19.5194 27.8411 19.4089 27.9986 19.1332C29.4571 16.5828 30.9307 14.0415 32.3983 11.4971C32.4679 11.3774 32.5224 11.2487 32.5906 11.1109C27.6911 8.28177 22.8205 5.46782 17.9226 2.63872C14.6755 8.2636 11.4586 13.8385 8.19033 19.5013H8.19336ZM25.1134 11.1215C23.9367 10.443 22.8023 9.79022 21.674 9.14049C20.685 10.1355 19.5522 10.5157 18.2209 10.2037C17.915 10.1325 17.8241 10.3127 17.7075 10.5142C16.0628 13.3675 14.4165 16.2193 12.7717 19.0742C12.7036 19.1923 12.6536 19.321 12.5672 19.5028H13.2246C16.0355 19.5028 18.8464 19.5028 21.6573 19.5028C22.2419 19.5028 22.9416 19.683 23.3778 19.4255C23.8322 19.1575 24.0412 18.4638 24.3426 17.9474C24.9378 16.9281 25.5239 15.9028 26.1115 14.8835C25.0529 13.8067 24.6939 12.5784 25.1104 11.123L25.1134 11.1215ZM25.4194 5.36937C25.5678 5.45873 25.7162 5.55112 25.8692 5.63896C28.4545 7.13226 31.0427 8.62557 33.628 10.1204C34.3338 10.5278 34.3989 10.7837 33.9885 11.4971C32.5452 14.0006 31.1003 16.5025 29.6555 19.006C29.5722 19.1514 29.4919 19.2968 29.3783 19.5028C31.3093 19.5028 33.1464 19.5103 34.982 19.4907C35.144 19.4891 35.3349 19.3483 35.4621 19.2226C36.8842 17.8156 38.2957 16.3995 39.7087 14.9835C39.8072 14.885 39.895 14.773 39.939 14.7215C35.9331 10.7141 31.9575 6.73849 28.0062 2.78562C27.1777 3.61406 26.319 4.47279 25.4209 5.3724L25.4194 5.36937ZM10.7892 12.2452C9.08388 12.2452 7.47395 12.2286 5.86555 12.2498C3.98907 12.274 2.40189 13.8794 2.36705 15.7544C2.32768 17.8626 3.90881 19.4558 6.06699 19.5073C6.44713 19.5164 6.6728 19.4164 6.8712 19.0636C7.87229 17.2795 8.90669 15.5151 9.9305 13.7431C10.2046 13.269 10.4757 12.7935 10.7907 12.2437L10.7892 12.2452ZM39.6724 12.2558C39.6497 12.2922 39.627 12.327 39.6043 12.3634C40.1722 12.9147 40.7447 13.4614 41.3066 14.0203C41.817 14.5276 41.8124 14.8154 41.299 15.3318C40.0374 16.5979 38.7728 17.8595 37.5097 19.1257C37.4143 19.2211 37.3295 19.3286 37.178 19.5013C38.6986 19.5013 40.1237 19.5013 41.5489 19.5013C41.6746 19.5013 41.8003 19.4831 41.9442 19.4725V12.2574H39.6724V12.2558Z" fill="black" stroke="black" stroke-width="0.5"/>
<path d="M43.2185 32.7439C43.2185 31.3942 44.2907 30.3206 45.6376 30.3206C46.9705 30.3206 48.0748 31.4179 48.0762 32.7425C48.0762 34.0643 46.9705 35.1672 45.6404 35.1672C44.2963 35.1672 43.2199 34.0908 43.2199 32.7439H43.2185ZM44.4887 32.7285C44.4831 33.3811 44.992 33.9081 45.632 33.9123C46.2622 33.9165 46.7948 33.3769 46.7907 32.7369C46.7879 32.1164 46.279 31.5936 45.6627 31.5769C45.0269 31.5601 44.4942 32.0816 44.4887 32.7285Z" fill="black" stroke="black" stroke-width="0.5"/>
</svg>
