<svg width="50" height="50" viewBox="0 0 50 50" fill="none" xmlns="http://www.w3.org/2000/svg">
<path d="M18.3709 36.0485C16.1612 42.6777 7.32233 42.6777 7.32233 42.6777C7.32233 42.6777 7.32233 33.8388 13.9515 31.6291" stroke="black" stroke-width="2" stroke-linecap="round" stroke-linejoin="round"/>
<path d="M38.2583 20.5806L25 33.8388L16.1612 25L29.4194 11.7417C34.4398 6.72141 39.4601 6.77038 41.6012 7.08982C41.9308 7.13896 42.236 7.2927 42.4716 7.52838C42.7073 7.76405 42.8611 8.0692 42.9102 8.39886C43.2297 10.5399 43.2786 15.5602 38.2583 20.5806Z" stroke="black" stroke-width="2" stroke-linecap="round" stroke-linejoin="round"/>
<path d="M36.0485 22.7903V35.4013C36.0485 35.6065 36.0081 35.8097 35.9296 35.9993C35.8511 36.1888 35.736 36.3611 35.5909 36.5062L29.2741 42.8229C29.0742 43.0229 28.8237 43.1649 28.5493 43.2337C28.275 43.3024 27.9872 43.2955 27.7165 43.2135C27.4458 43.1316 27.2025 42.9777 27.0124 42.7683C26.8223 42.5589 26.6926 42.3018 26.6371 42.0245L25 33.8388" stroke="black" stroke-width="2" stroke-linecap="round" stroke-linejoin="round"/>
<path d="M27.2097 13.9515H14.5987C14.3935 13.9515 14.1903 13.9919 14.0007 14.0704C13.8112 14.1489 13.6389 14.264 13.4938 14.4091L7.17707 20.7259C6.97709 20.9258 6.83514 21.1763 6.76635 21.4507C6.69756 21.725 6.70451 22.0128 6.78647 22.2835C6.86842 22.5542 7.0223 22.7975 7.2317 22.9876C7.4411 23.1777 7.69817 23.3074 7.97549 23.3629L16.1612 25" stroke="black" stroke-width="2" stroke-linecap="round" stroke-linejoin="round"/>
</svg>
