<svg width="53" height="50" viewBox="0 0 53 50" fill="none" xmlns="http://www.w3.org/2000/svg">
<path d="M0 23.481C0.327359 22.954 0.805515 22.7964 1.41405 22.7991C4.78544 22.8168 8.15819 22.7991 11.5296 22.8195C11.9643 22.8222 12.13 22.6633 12.2875 22.287C12.6896 21.3213 13.1501 20.3813 13.5888 19.4318C13.6581 19.2824 13.7355 19.1371 13.8442 18.9197C13.127 18.9197 12.4736 18.9197 11.8203 18.9197C10.5828 18.9197 9.34671 18.9238 8.10927 18.9184C7.3649 18.9143 6.91665 18.5204 6.92072 17.8955C6.9248 17.2843 7.39887 16.8781 8.12287 16.8768C10.3424 16.8741 12.5619 16.87 14.7814 16.8822C15.1115 16.8836 15.3356 16.8007 15.5543 16.5331C18.4544 12.9851 22.1192 10.6311 26.5745 9.52953C26.8883 9.45211 27.016 9.32035 26.9983 8.98077C26.9671 8.38989 26.9766 7.79493 26.9956 7.2027C27.0038 6.93918 26.9046 6.82508 26.6655 6.72728C25.0043 6.04539 24.1173 4.49146 24.427 2.84244C24.7421 1.16217 26.1969 0.00622724 28.0089 0.00215223C30.2801 -0.00192278 32.5499 0.000793892 34.821 0.00215223C36.8599 0.00215223 38.2807 1.10376 38.5972 2.96876C38.8308 4.34883 38.1353 6.19753 36.0231 6.85632V9.40185C38.0212 9.86504 39.9216 10.5578 41.6765 11.5928C47.2145 14.861 50.6266 19.6505 51.7513 25.9885C52.6709 31.1719 51.6291 36.0035 48.8703 40.4765C48.6054 40.9071 48.2563 41.1435 47.7374 41.0701C47.3014 41.009 46.9822 40.7387 46.9374 40.3339C46.9007 40.0134 46.9958 39.6221 47.1669 39.3437C48.2984 37.495 49.1243 35.5281 49.5752 33.4078C51.6223 23.8029 45.9811 13.9944 35.9824 11.5181C26.2825 9.11524 16.6002 14.7211 13.7885 24.2363C10.7771 34.4238 17.0512 45.1832 27.3691 47.4516C32.3284 48.5424 37.0147 47.7912 41.3627 45.1153C41.5339 45.0093 41.7118 44.8952 41.9034 44.845C42.4195 44.7064 42.9085 44.9631 43.1082 45.4426C43.3133 45.9371 43.1734 46.4587 42.626 46.7371C41.1536 47.4869 39.7151 48.3794 38.1544 48.8656C29.749 51.4818 22.4425 49.557 16.3164 43.2543C14.6388 41.5293 13.4082 39.4768 12.5198 37.2356C12.3786 36.8797 12.2019 36.7574 11.8189 36.7615C9.73521 36.7805 7.65016 36.771 5.56647 36.771C5.43063 36.771 5.2948 36.7764 5.16032 36.7669C4.46893 36.7153 4.05056 36.2942 4.07229 35.6803C4.09267 35.1016 4.53142 34.6927 5.19972 34.6887C7.11498 34.6778 9.02888 34.6846 10.9441 34.6846C11.1452 34.6846 11.3462 34.6846 11.5839 34.6846C11.3761 33.3724 11.175 32.1024 10.9686 30.7997C9.49614 30.7997 8.0237 30.8052 6.55126 30.797C5.88567 30.793 5.4578 30.3379 5.49719 29.7049C5.53115 29.1521 5.94816 28.7731 6.5567 28.769C7.8281 28.7622 9.09816 28.7663 10.3696 28.7663C10.5543 28.7663 10.7377 28.7663 10.9305 28.7663C11.099 27.4705 11.2634 26.2045 11.4345 24.8869H10.864C7.71264 24.8869 4.56131 24.8774 1.40861 24.895C0.793285 24.8991 0.324647 24.7212 0.00407899 24.1901V23.4783L0 23.481ZM31.4836 4.8813C32.6694 4.8813 33.8552 4.88538 35.0424 4.8813C35.9212 4.87723 36.5393 4.32574 36.576 3.52432C36.6126 2.74599 36.0082 2.0872 35.1334 2.07633C32.7102 2.04917 30.2869 2.04781 27.865 2.07633C26.9834 2.0872 26.402 2.73513 26.436 3.53247C26.4686 4.32167 27.0975 4.87587 27.9777 4.87994C29.1472 4.88402 30.3154 4.87994 31.4849 4.87994L31.4836 4.8813ZM33.9231 8.98349V6.98537H29.1078V8.98349H33.9231Z" fill="black"/>
<path d="M0 35.3773C0.283893 34.9834 0.596335 34.618 1.14646 34.7117C1.62324 34.7932 1.94923 35.0785 2.02258 35.5716C2.09593 36.0606 1.88675 36.4328 1.44529 36.6528C1.01877 36.8647 0.539271 36.7411 0.214628 36.358C0.139919 36.2711 0.0719919 36.1788 0 36.0891C0 35.8514 0 35.615 0 35.3773Z" fill="black"/>
<path d="M47.2905 29.474C47.2675 38.2285 40.1932 45.262 31.4374 45.2375C22.7671 45.2131 15.7037 38.0859 15.7499 29.4101C15.7961 20.6991 22.8649 13.6426 31.527 13.6616C40.2448 13.6806 47.3136 20.7725 47.2905 29.4754V29.474ZM31.542 15.7412C24.0059 15.729 17.8105 21.8524 17.7901 29.33C17.7698 36.9761 23.8864 43.162 31.4972 43.1932C39.0047 43.2231 45.2354 37.0304 45.2476 29.5283C45.2598 21.9067 39.1432 15.7534 31.542 15.7412Z" fill="black"/>
<path d="M44.313 43.2747C44.3063 42.7042 44.7668 42.2261 45.3237 42.2261C45.8752 42.2261 46.3614 42.7178 46.356 43.2679C46.3506 43.8004 45.8915 44.2704 45.3563 44.2907C44.8048 44.3125 44.3212 43.8411 44.3144 43.2733L44.313 43.2747Z" fill="black"/>
<path d="M28.3404 29.4265C28.3743 29.1928 28.3512 28.932 28.4517 28.7323C28.7207 28.1958 28.5332 27.8522 28.1176 27.4895C27.558 27.0005 27.0499 26.4503 26.5297 25.9165C26.0244 25.3976 25.9959 24.7755 26.4414 24.3476C26.8639 23.9415 27.49 23.9809 27.9763 24.459C28.6039 25.0757 29.2274 25.6992 29.8413 26.3294C30.0261 26.5183 30.1741 26.5835 30.4526 26.4762C31.1358 26.2154 31.853 26.2058 32.5376 26.4626C32.8514 26.5807 33.0199 26.5115 33.2345 26.2941C34.7721 24.7416 36.3179 23.1985 37.8664 21.6581C38.3051 21.2221 38.7371 21.1583 39.1921 21.4299C39.5996 21.6731 39.8088 22.1607 39.6309 22.613C39.5358 22.8535 39.3497 23.0735 39.1636 23.261C37.6735 24.7646 36.178 26.2629 34.6716 27.7503C34.4502 27.969 34.4135 28.1347 34.5086 28.443C34.9106 29.7375 34.6403 30.9003 33.6148 31.809C32.6286 32.6838 31.4849 32.8712 30.2624 32.3523C29.0712 31.8484 28.358 30.725 28.339 29.4251L28.3404 29.4265ZM31.523 28.3534C30.9212 28.3534 30.42 28.8315 30.4023 29.4251C30.3847 30.0255 30.9103 30.5634 31.5175 30.5647C32.1233 30.5661 32.6531 30.0309 32.6381 29.4305C32.6232 28.8369 32.1247 28.3547 31.523 28.3534Z" fill="black"/>
<path d="M21.1276 30.5118C20.8614 30.4765 20.5857 30.4737 20.3316 30.399C19.8576 30.2591 19.5791 29.8299 19.6307 29.3531C19.6851 28.8641 19.9554 28.5245 20.4498 28.4552C20.8478 28.3996 21.2607 28.3914 21.6601 28.4294C22.2632 28.4865 22.6259 28.9211 22.6055 29.4794C22.5851 30.0296 22.1831 30.4275 21.5867 30.4764C21.436 30.4887 21.2825 30.4778 21.1303 30.4778C21.1303 30.4887 21.1276 30.4995 21.1263 30.5118H21.1276Z" fill="black"/>
<path d="M30.5137 19.0637C30.5137 18.8613 30.4934 18.6562 30.5178 18.4552C30.583 17.9159 31.0231 17.5573 31.5733 17.5723C32.1003 17.5872 32.4996 17.9526 32.5363 18.4864C32.5607 18.8396 32.558 19.1968 32.5417 19.55C32.5146 20.1436 32.1125 20.5307 31.542 20.5334C30.9756 20.5361 30.5531 20.1449 30.511 19.569C30.4988 19.4006 30.5097 19.2308 30.5097 19.0623C30.511 19.0623 30.5124 19.0623 30.5137 19.0623V19.0637Z" fill="black"/>
<path d="M32.5254 39.8558C32.5254 40.0582 32.5471 40.2646 32.5213 40.4643C32.4588 40.9615 31.9943 41.3608 31.5066 41.3595C30.9877 41.3595 30.5368 40.9424 30.5042 40.41C30.4824 40.0554 30.4838 39.6996 30.5001 39.345C30.5259 38.78 30.9769 38.3453 31.5107 38.348C32.0404 38.3507 32.4941 38.7922 32.5308 39.3491C32.5417 39.5175 32.5322 39.6873 32.5322 39.8571C32.5294 39.8571 32.5281 39.8571 32.5254 39.8571V39.8558Z" fill="black"/>
<path d="M41.9632 28.458C42.1316 28.458 42.3014 28.4471 42.4698 28.4593C43.0036 28.5001 43.384 28.8872 43.4111 29.4047C43.4397 29.9345 43.0689 30.4208 42.5391 30.4751C42.137 30.5159 41.7268 30.5145 41.3234 30.4792C40.7882 30.4316 40.4133 29.9603 40.431 29.4278C40.45 28.8899 40.8425 28.4933 41.4035 28.458C41.5882 28.4457 41.7757 28.4566 41.9618 28.4566C41.9618 28.4566 41.9618 28.4566 41.9618 28.458H41.9632Z" fill="black"/>
</svg>
